HIERARCHY
ROOT Hips
{
	OFFSET 0.000000 71.427986 0.000000
	CHANNELS 6 Xposition Yposition Zposition Xrotation Yrotation Zrotation
	JOINT Pelvis
	{
		OFFSET 0.000000 0.000000 0.000000
		CHANNELS 3 Xrotation Yrotation Zrotation
		JOINT LeftUpLeg
		{
			OFFSET 6.797100 -2.508499 -1.318700
			CHANNELS 3 Xrotation Yrotation Zrotation
			JOINT LeftLeg
			{
				OFFSET 0.069008 -29.241863 0.690200
				CHANNELS 3 Xrotation Yrotation Zrotation
				JOINT LeftFoot
				{
					OFFSET -0.069008 -29.568123 -0.266800
					CHANNELS 3 Xrotation Yrotation Zrotation
					JOINT LeftToeBase
					{
						OFFSET 3.145500 -8.631000 16.059900
						CHANNELS 3 Xrotation Yrotation Zrotation
						End Site
						{
							OFFSET 0.000000 18.501587 0.000000
						}
					}
				}
			}
			JOINT Left_ShortSleeve
			{
				OFFSET 0.265923 -10.480953 1.153800
				CHANNELS 3 Xrotation Yrotation Zrotation
				End Site
				{
					OFFSET 1.725763 19.823879 0.000000
				}
			}
		}
		JOINT RightUpLeg
		{
			OFFSET -6.797100 -2.508499 -1.318700
			CHANNELS 3 Xrotation Yrotation Zrotation
			JOINT RightLeg
			{
				OFFSET -0.082453 -29.241932 0.688000
				CHANNELS 3 Xrotation Yrotation Zrotation
				JOINT RightFoot
				{
					OFFSET 0.082453 -29.568058 -0.264600
					CHANNELS 3 Xrotation Yrotation Zrotation
					JOINT RightToeBase
					{
						OFFSET -3.115300 -8.682800 16.113400
						CHANNELS 3 Xrotation Yrotation Zrotation
						End Site
						{
							OFFSET 0.000000 18.567114 0.000000
						}
					}
				}
			}
			JOINT Right_ShortSleeve
			{
				OFFSET -0.265923 -10.480953 1.153800
				CHANNELS 3 Xrotation Yrotation Zrotation
				End Site
				{
					OFFSET -1.725766 19.823910 0.000000
				}
			}
		}
	}
	JOINT Spine
	{
		OFFSET 0.000000 13.368103 0.470500
		CHANNELS 3 Xrotation Yrotation Zrotation
		JOINT Spine1
		{
			OFFSET 0.147000 13.837402 0.538800
			CHANNELS 3 Xrotation Yrotation Zrotation
			JOINT Spine2
			{
				OFFSET 0.168000 16.242897 -1.435500
				CHANNELS 3 Xrotation Yrotation Zrotation
				JOINT Neck
				{
					OFFSET 0.217200 18.631500 -1.679100
					CHANNELS 3 Xrotation Yrotation Zrotation
					JOINT Head
					{
						OFFSET 0.000000 6.599396 1.385900
						CHANNELS 3 Xrotation Yrotation Zrotation
						JOINT Hat
						{
							OFFSET -0.532200 27.220596 -10.096100
							CHANNELS 3 Xrotation Yrotation Zrotation
							End Site
							{
								OFFSET 0.000000 22.029861 0.000000
							}
						}
						JOINT HairD
						{
							OFFSET -10.777400 17.437393 -1.325900
							CHANNELS 3 Xrotation Yrotation Zrotation
							JOINT HairD1
							{
								OFFSET -3.290299 -11.051193 1.062200
								CHANNELS 3 Xrotation Yrotation Zrotation
								End Site
								{
									OFFSET 0.000000 11.579437 0.000000
								}
							}
						}
						JOINT HairB
						{
							OFFSET -10.777400 17.437393 1.467900
							CHANNELS 3 Xrotation Yrotation Zrotation
							JOINT HairB1
							{
								OFFSET -1.561200 -12.956299 3.590200
								CHANNELS 3 Xrotation Yrotation Zrotation
								End Site
								{
									OFFSET 0.000000 13.534866 0.000000
								}
							}
						}
						JOINT HairA
						{
							OFFSET 9.713100 17.437393 1.467900
							CHANNELS 3 Xrotation Yrotation Zrotation
							JOINT HairA1
							{
								OFFSET 1.561200 -12.956299 3.590200
								CHANNELS 3 Xrotation Yrotation Zrotation
								End Site
								{
									OFFSET 0.000000 13.534866 0.000000
								}
							}
						}
						JOINT HairC
						{
							OFFSET 9.713100 17.437393 -1.325900
							CHANNELS 3 Xrotation Yrotation Zrotation
							JOINT HairC1
							{
								OFFSET 3.290300 -11.051193 1.062200
								CHANNELS 3 Xrotation Yrotation Zrotation
								End Site
								{
									OFFSET 0.000000 11.579437 0.000000
								}
							}
						}
					}
				}
				JOINT LeftShoulder
				{
					OFFSET 5.101800 15.108002 -2.763700
					CHANNELS 3 Xrotation Yrotation Zrotation
					JOINT LeftArm
					{
						OFFSET 9.825497 2.506317 -1.597400
						CHANNELS 3 Xrotation Yrotation Zrotation
						JOINT LeftForeArm
						{
							OFFSET 21.966244 0.000000 0.000000
							CHANNELS 3 Xrotation Yrotation Zrotation
							JOINT LeftHand
							{
								OFFSET 33.879036 0.000000 0.000000
								CHANNELS 3 Xrotation Yrotation Zrotation
								JOINT LeftHandThumb1
								{
									OFFSET 6.715286 -2.359680 3.363841
									CHANNELS 3 Xrotation Yrotation Zrotation
									JOINT LeftHandThumb2
									{
										OFFSET 2.507072 -1.447464 1.447461
										CHANNELS 3 Xrotation Yrotation Zrotation
										JOINT LeftHandThumb3
										{
											OFFSET 2.898338 -1.673355 1.673357
											CHANNELS 3 Xrotation Yrotation Zrotation
											End Site
											{
												OFFSET -0.295959 3.727692 -0.131651
											}
										}
									}
								}
								JOINT LeftHandIndex1
								{
									OFFSET 14.190811 -0.254547 3.840278
									CHANNELS 3 Xrotation Yrotation Zrotation
									JOINT LeftHandIndex2
									{
										OFFSET 3.551727 0.000000 -0.000000
										CHANNELS 3 Xrotation Yrotation Zrotation
										JOINT LeftHandIndex3
										{
											OFFSET 2.894196 0.000000 0.000000
											CHANNELS 3 Xrotation Yrotation Zrotation
											End Site
											{
												OFFSET -1.000603 2.690872 0.366626
											}
										}
									}
								}
								JOINT LeftHandMiddle1
								{
									OFFSET 13.776489 0.000000 0.000000
									CHANNELS 3 Xrotation Yrotation Zrotation
									JOINT LeftHandMiddle2
									{
										OFFSET 3.438232 0.000000 0.000000
										CHANNELS 3 Xrotation Yrotation Zrotation
										JOINT LeftHandMiddle3
										{
											OFFSET 3.691551 0.000000 0.000000
											CHANNELS 3 Xrotation Yrotation Zrotation
											End Site
											{
												OFFSET -1.082298 3.499527 0.457670
											}
										}
									}
								}
								JOINT LeftHandRing1
								{
									OFFSET 13.966164 -0.268127 -3.067488
									CHANNELS 3 Xrotation Yrotation Zrotation
									JOINT LeftHandRing2
									{
										OFFSET 3.162567 0.000000 0.000000
										CHANNELS 3 Xrotation Yrotation Zrotation
										JOINT LeftHandRing3
										{
											OFFSET 3.324348 0.000000 0.000000
											CHANNELS 3 Xrotation Yrotation Zrotation
											End Site
											{
												OFFSET -0.861900 3.184998 0.405154
											}
										}
									}
								}
								JOINT LeftHandPinky1
								{
									OFFSET 13.131393 -0.168503 -5.746925
									CHANNELS 3 Xrotation Yrotation Zrotation
									JOINT LeftHandPinky2
									{
										OFFSET 2.849182 0.000000 0.000000
										CHANNELS 3 Xrotation Yrotation Zrotation
										JOINT LeftHandPinky3
										{
											OFFSET 2.805038 0.000000 0.000000
											CHANNELS 3 Xrotation Yrotation Zrotation
											End Site
											{
												OFFSET -0.882500 2.642609 0.325652
											}
										}
									}
								}
							}
							JOINT Left_Sleeve
							{
								OFFSET 6.592125 -0.646545 0.805568
								CHANNELS 3 Xrotation Yrotation Zrotation
								End Site
								{
									OFFSET -0.000179 20.275787 -0.000000
								}
							}
						}
					}
				}
				JOINT RightShoulder
				{
					OFFSET -5.731700 15.108002 -2.763700
					CHANNELS 3 Xrotation Yrotation Zrotation
					JOINT RightArm
					{
						OFFSET -9.825497 2.506317 -1.597400
						CHANNELS 3 Xrotation Yrotation Zrotation
						JOINT RightForeArm
						{
							OFFSET -21.966242 0.000000 0.000000
							CHANNELS 3 Xrotation Yrotation Zrotation
							JOINT RightHand
							{
								OFFSET -33.879032 0.000000 0.000000
								CHANNELS 3 Xrotation Yrotation Zrotation
								JOINT RightHandThumb1
								{
									OFFSET -6.715286 -2.359680 3.363841
									CHANNELS 3 Xrotation Yrotation Zrotation
									JOINT RightHandThumb2
									{
										OFFSET -2.507072 -1.447464 1.447461
										CHANNELS 3 Xrotation Yrotation Zrotation
										JOINT RightHandThumb3
										{
											OFFSET -2.898338 -1.673355 1.673357
											CHANNELS 3 Xrotation Yrotation Zrotation
											End Site
											{
												OFFSET 0.295959 3.727692 -0.131651
											}
										}
									}
								}
								JOINT RightHandIndex1
								{
									OFFSET -14.190811 -0.254547 3.840278
									CHANNELS 3 Xrotation Yrotation Zrotation
									JOINT RightHandIndex2
									{
										OFFSET -3.551727 0.000000 -0.000000
										CHANNELS 3 Xrotation Yrotation Zrotation
										JOINT RightHandIndex3
										{
											OFFSET -2.894196 0.000000 0.000000
											CHANNELS 3 Xrotation Yrotation Zrotation
											End Site
											{
												OFFSET 1.000603 2.690872 0.366626
											}
										}
									}
								}
								JOINT RightHandMiddle1
								{
									OFFSET -13.776489 0.000000 0.000000
									CHANNELS 3 Xrotation Yrotation Zrotation
									JOINT RightHandMiddle2
									{
										OFFSET -3.438232 0.000000 0.000000
										CHANNELS 3 Xrotation Yrotation Zrotation
										JOINT RightHandMiddle3
										{
											OFFSET -3.691551 0.000000 0.000000
											CHANNELS 3 Xrotation Yrotation Zrotation
											End Site
											{
												OFFSET 1.082298 3.499527 0.457670
											}
										}
									}
								}
								JOINT RightHandRing1
								{
									OFFSET -13.966164 -0.268127 -3.067488
									CHANNELS 3 Xrotation Yrotation Zrotation
									JOINT RightHandRing2
									{
										OFFSET -3.162567 0.000000 0.000000
										CHANNELS 3 Xrotation Yrotation Zrotation
										JOINT RightHandRing3
										{
											OFFSET -3.324348 0.000000 0.000000
											CHANNELS 3 Xrotation Yrotation Zrotation
											End Site
											{
												OFFSET 0.861900 3.184998 0.405154
											}
										}
									}
								}
								JOINT RightHandPinky1
								{
									OFFSET -13.131393 -0.168503 -5.746925
									CHANNELS 3 Xrotation Yrotation Zrotation
									JOINT RightHandPinky2
									{
										OFFSET -2.849182 0.000000 0.000000
										CHANNELS 3 Xrotation Yrotation Zrotation
										JOINT RightHandPinky3
										{
											OFFSET -2.805038 0.000000 0.000000
											CHANNELS 3 Xrotation Yrotation Zrotation
											End Site
											{
												OFFSET 0.882500 2.642609 0.325652
											}
										}
									}
								}
							}
							JOINT Right_Sleeve
							{
								OFFSET -6.592125 -0.646545 0.805568
								CHANNELS 3 Xrotation Yrotation Zrotation
								End Site
								{
									OFFSET 0.000179 20.275787 -0.000000
								}
							}
						}
					}
				}
				JOINT Bind_Right_JacketString
				{
					OFFSET -3.534800 11.969597 7.200700
					CHANNELS 3 Xrotation Yrotation Zrotation
					JOINT Bind_Right_JacketString1
					{
						OFFSET -0.319900 -6.102600 2.794100
						CHANNELS 3 Xrotation Yrotation Zrotation
						End Site
						{
							OFFSET 0.000000 6.719452 0.000000
						}
					}
				}
				JOINT Bind_Left_JacketString
				{
					OFFSET 2.904800 11.969597 7.200700
					CHANNELS 3 Xrotation Yrotation Zrotation
					JOINT Bind_Left_JacketString1
					{
						OFFSET 0.364800 -5.904503 3.186800
						CHANNELS 3 Xrotation Yrotation Zrotation
						End Site
						{
							OFFSET 0.000000 6.719513 0.000000
						}
					}
				}
				JOINT HairE
				{
					OFFSET 5.915200 17.612701 -11.592200
					CHANNELS 3 Xrotation Yrotation Zrotation
					JOINT HairE1
					{
						OFFSET 0.289200 -7.171898 -1.284500
						CHANNELS 3 Xrotation Yrotation Zrotation
						End Site
						{
							OFFSET 0.000000 7.291756 0.000000
						}
					}
				}
				JOINT HairF
				{
					OFFSET -0.864800 17.612701 -11.592200
					CHANNELS 3 Xrotation Yrotation Zrotation
					JOINT HairF1
					{
						OFFSET 0.000000 -14.087097 -2.127501
						CHANNELS 3 Xrotation Yrotation Zrotation
						End Site
						{
							OFFSET 0.000000 14.246841 0.000000
						}
					}
				}
				JOINT HairG
				{
					OFFSET -8.087700 17.612701 -11.592200
					CHANNELS 3 Xrotation Yrotation Zrotation
					JOINT HairG1
					{
						OFFSET -0.293600 -6.081398 -0.910100
						CHANNELS 3 Xrotation Yrotation Zrotation
						End Site
						{
							OFFSET 0.000000 6.156120 0.000000
						}
					}
				}
			}
		}
	}
	JOINT Pouch
	{
		OFFSET 0.000000 4.394501 10.847300
		CHANNELS 3 Xrotation Yrotation Zrotation
		End Site
		{
			OFFSET 0.000000 21.880577 0.000000
		}
	}
	JOINT Bag
	{
		OFFSET -13.229000 4.813004 -0.593300
		CHANNELS 3 Xrotation Yrotation Zrotation
		End Site
		{
			OFFSET 0.000000 21.880577 0.000000
		}
	}
	JOINT OccupyGuyFacialAnim_Joint
	{
		OFFSET 1.000000 -70.206398 -1.655000
		CHANNELS 3 Xrotation Yrotation Zrotation
		End Site
		{
			OFFSET 0.000000 21.880577 0.000000
		}
	}
}
MOTION
Frames: 4
Frame Time: 0.033333
-0.496934 60.469696 0.364140 15.500780 -53.415570 11.678749 0.000000 0.000002 -0.000000 -65.819569 26.153168 42.771686 46.265096 -14.931835 4.318099 0.664183 0.552071 -9.994265 0.000000 -0.000000 -0.000000 -0.000000 -0.000001 -0.000000 -33.703948 -20.428640 -35.288579 42.297804 -0.659126 -5.458456 -13.837348 -5.333391 30.444629 -0.000000 0.000000 -0.000000 -0.000000 0.000000 -0.000001 7.406298 3.464124 -3.063072 1.209180 1.420667 2.325057 0.209259 1.298846 1.049732 -1.852113 9.789357 -1.570086 -3.710346 23.673092 -4.987622 0.000001 0.000002 -0.000000 0.000001 0.000002 -0.000000 0.000001 0.000002 -0.000000 0.000001 0.000002 -0.000000 -0.000000 0.000000 -0.000000 0.000001 0.000002 -0.000000 -0.000000 0.000000 -0.000000 0.000001 0.000002 -0.000000 0.000001 0.000002 -0.000000 -2.416903 -9.914487 -4.105213 -4.668988 -14.995288 -46.826947 -96.668159 -58.172817 -94.771737 0.027010 -0.377059 -3.261908 4.766502 -0.870668 -14.442466 15.732325 12.674831 8.828578 -0.000000 0.000001 -0.000001 -3.610942 -7.817601 -81.262667 0.026000 -4.402910 -67.457469 0.000001 -0.000000 0.000003 -5.483661 2.419561 -86.651024 -0.051584 -4.887361 -76.604089 -0.000000 0.000003 0.000005 -4.480794 3.914155 -90.412505 -1.097235 -0.675668 -62.310737 -0.000002 -0.000000 -0.000004 -8.868633 8.263654 -85.753886 -0.073947 -0.070529 -74.105661 -0.000001 -0.000000 0.000001 0.000000 -0.000000 0.000000 -7.387813 -19.317450 2.804095 3.089083 2.300706 51.805110 -16.213761 73.879424 16.738343 -2.716628 27.655246 10.524494 24.918335 -21.323388 30.343061 9.041932 8.262098 -18.001819 -0.000001 -0.000003 0.000003 -0.070689 -3.035240 61.424226 0.006482 4.395178 66.609173 -0.000002 -0.000001 0.000000 -1.235401 -0.119480 68.274270 -0.077297 4.902839 84.501898 0.000001 -0.000001 0.000001 0.883163 -4.613426 79.192943 -0.717758 1.136478 73.255773 -0.000004 -0.000001 -0.000000 -3.944547 0.099983 86.764774 -0.029792 0.060123 54.415157 -0.000000 -0.000000 0.000000 0.000004 -0.000000 0.000002 -0.000000 0.000000 -0.000000 -0.000000 -0.000001 0.000000 -0.000000 0.000000 -0.000000 -0.000000 0.000000 -0.000000 -0.000000 0.000000 -0.000000 -0.000000 -0.000001 0.000001 -0.000000 0.000000 -0.000000 -0.000000 0.000000 -0.000000 -0.000000 0.000000 -0.000000 -0.000000 -0.000001 0.000001 0.000000 0.000002 -0.000000 0.000000 0.000002 -0.000000 0.000000 0.000002 -0.000000 
0.168157 60.423203 -0.496401 17.599458 -56.171640 14.409373 -0.000001 -0.000000 0.000000 -65.859935 17.433148 39.142332 58.400289 -9.196033 2.929660 -1.907737 0.171281 -1.592703 -0.000000 -0.000002 0.000001 -0.000002 0.000002 0.000000 -37.431452 -18.029585 -35.484489 44.536078 1.139998 -5.420760 -13.874763 -4.977144 28.902270 0.000000 -0.000000 0.000000 0.000001 0.000001 -0.000001 7.786630 1.713893 -2.748891 0.976962 0.919699 2.078914 0.058211 0.810397 0.907459 -2.300897 10.095554 -1.738477 -4.549021 24.861718 -5.519753 0.000001 0.000000 -0.000000 0.000001 0.000000 -0.000000 0.000001 0.000000 -0.000000 0.000001 0.000000 -0.000000 -0.000000 0.000000 -0.000000 0.000001 0.000000 -0.000000 -0.000000 0.000000 -0.000000 0.000001 0.000000 -0.000000 0.000001 0.000000 -0.000000 -2.218974 -8.795231 -4.754011 -5.941561 -14.330618 -45.331873 -93.959675 -59.100766 -91.204459 -0.633181 -0.441814 -6.211855 4.340168 -0.721731 -13.273184 14.309759 12.797444 8.163799 -0.000001 0.000001 0.000000 -3.262924 -8.038406 -78.586961 0.025857 -4.402394 -65.551586 0.000001 0.000002 -0.000002 -5.483297 2.246920 -83.686920 -0.049670 -4.886158 -74.615561 -0.000000 0.000002 -0.000001 -4.476717 3.815631 -87.630364 -1.093661 -0.674089 -60.553493 0.000000 0.000001 0.000000 -8.816025 8.268371 -83.067593 -0.071967 -0.070765 -72.491892 0.000001 0.000001 -0.000001 0.000001 0.000000 0.000000 -6.557572 -16.207834 3.389328 5.003528 2.636319 45.573659 -23.861391 75.509661 23.862244 -1.327831 24.886841 9.412358 24.918335 -21.323386 30.343057 9.041923 8.262106 -18.001816 -0.000003 -0.000006 0.000001 -0.070687 -3.035242 61.424233 0.006480 4.395178 66.609173 0.000001 -0.000001 0.000002 -1.235399 -0.119481 68.274270 -0.077298 4.902838 84.501898 -0.000002 -0.000000 0.000001 0.883160 -4.613424 79.192949 -0.717759 1.136478 73.255773 -0.000002 0.000001 -0.000001 -3.944545 0.099980 86.764781 -0.029793 0.060119 54.415161 -0.000002 0.000000 0.000001 0.000004 -0.000002 0.000000 0.000002 -0.000004 0.000001 -0.000000 0.000003 -0.000001 0.000002 -0.000004 0.000001 0.000002 -0.000004 0.000001 0.000002 -0.000004 0.000001 -0.000000 0.000003 -0.000001 0.000002 -0.000004 0.000001 0.000002 -0.000004 0.000001 0.000002 -0.000004 0.000001 -0.000000 0.000003 -0.000001 -0.000001 -0.000000 0.000000 -0.000001 -0.000000 0.000000 -0.000001 -0.000000 0.000000 
0.620139 60.216103 -1.219620 20.113539 -58.867256 17.500596 0.000000 0.000001 -0.000000 -67.203310 9.543342 35.561998 70.024015 -4.478231 1.418504 -0.412418 -0.244660 3.996313 -0.000001 -0.000003 0.000001 -0.000000 -0.000001 0.000002 -40.911221 -15.695368 -35.466051 46.970658 2.997250 -5.343347 -14.160300 -4.712318 27.615087 0.000000 -0.000000 0.000000 -0.000002 -0.000001 -0.000000 8.319655 0.046047 -2.408580 0.742117 0.436917 1.853440 -0.092705 0.339901 0.787822 -2.695654 10.400584 -1.915360 -5.335563 26.073602 -6.166179 -0.000000 -0.000001 0.000000 -0.000000 -0.000001 0.000000 -0.000000 -0.000001 -0.000000 -0.000000 -0.000001 0.000000 -0.000001 -0.000001 0.000000 -0.000000 -0.000001 0.000000 -0.000001 -0.000001 0.000000 -0.000000 -0.000001 0.000000 -0.000000 -0.000001 0.000000 -1.748459 -8.490902 -4.480878 -7.341397 -12.665041 -43.375820 -91.396564 -60.469741 -88.203082 -1.494235 0.223445 -9.233256 2.535528 -0.046428 -11.148890 10.488317 13.290799 6.260066 0.000002 -0.000000 0.000000 -2.295543 -8.112958 -71.255320 0.025381 -4.401062 -60.350390 0.000002 0.000001 0.000003 -5.418363 2.084369 -75.696480 -0.044656 -4.882544 -69.160733 0.000000 0.000000 0.000004 -4.437132 3.723261 -80.180834 -1.085882 -0.668433 -55.632229 -0.000001 0.000000 0.000003 -8.762633 8.289947 -75.766858 -0.066538 -0.071063 -68.130652 -0.000000 -0.000003 0.000001 -0.000001 -0.000000 -0.000000 -6.211034 -13.717212 2.539711 5.861304 2.979496 38.443194 -38.173190 75.559883 37.674900 -0.248215 22.651296 9.568618 24.918333 -21.323390 30.343061 9.041926 8.262098 -18.001811 -0.000003 0.000002 -0.000000 -0.070693 -3.035239 61.424233 0.006479 4.395178 66.609173 0.000000 -0.000002 -0.000000 -1.235399 -0.119480 68.274270 -0.077299 4.902837 84.501898 -0.000000 0.000001 -0.000002 0.883163 -4.613428 79.192943 -0.717758 1.136474 73.255773 -0.000002 0.000000 0.000001 -3.944547 0.099981 86.764781 -0.029792 0.060123 54.415154 -0.000002 0.000001 0.000001 0.000001 -0.000002 0.000002 -0.000000 -0.000003 0.000001 0.000002 -0.000001 -0.000000 -0.000000 -0.000003 0.000001 -0.000000 -0.000003 0.000001 -0.000000 -0.000003 0.000001 0.000002 -0.000001 -0.000000 -0.000000 -0.000003 0.000001 -0.000000 -0.000003 0.000001 -0.000000 -0.000003 0.000001 0.000002 -0.000001 -0.000000 0.000000 0.000001 -0.000000 0.000000 0.000001 -0.000000 0.000000 0.000001 -0.000000 
0.975937 59.914528 -1.799363 23.217309 -61.585336 21.136148 0.000000 -0.000000 0.000000 -70.012526 3.951728 33.584443 83.210931 -9.781855 -1.513022 6.880118 -0.342235 -7.404694 0.000001 0.000001 0.000001 -0.000000 0.000001 0.000001 -44.211685 -13.448586 -35.267494 49.291737 4.961549 -5.209180 -14.412857 -4.434041 26.451344 0.000000 0.000000 0.000000 -0.000004 -0.000001 0.000000 8.937452 -1.564536 -2.051718 0.504300 -0.036841 1.638310 -0.244384 -0.121568 0.679456 -3.062295 10.704874 -2.096724 -6.075963 27.293267 -6.880341 -0.000000 -0.000000 -0.000000 -0.000000 -0.000000 -0.000000 -0.000000 -0.000000 -0.000000 -0.000000 -0.000000 0.000000 -0.000001 -0.000000 -0.000000 -0.000000 -0.000000 0.000000 -0.000001 -0.000000 -0.000000 -0.000000 -0.000000 -0.000000 -0.000000 -0.000000 -0.000000 -1.063934 -7.719513 -3.618024 -9.092133 -9.922387 -41.072274 -85.606395 -62.535129 -82.087276 -2.431575 0.648605 -12.351847 0.044268 0.748858 -8.493923 5.604784 14.184847 3.729264 0.000001 -0.000000 -0.000001 -1.047803 -7.840757 -61.704284 0.024591 -4.399423 -53.562979 0.000001 0.000001 -0.000000 -5.286840 1.929612 -65.287606 -0.038660 -4.877136 -62.039039 0.000001 0.000000 -0.000001 -4.361290 3.635152 -70.487463 -1.076472 -0.660053 -49.192501 0.000000 0.000001 -0.000003 -8.709698 8.330316 -66.256072 -0.059486 -0.070864 -62.438140 0.000001 -0.000001 0.000006 0.000001 0.000003 0.000000 -6.003722 -11.547181 0.741519 6.033115 5.099702 29.294606 -49.967079 72.886151 49.320110 0.922393 21.288916 9.626357 24.918335 -21.323384 30.343054 9.041926 8.262101 -18.001809 -0.000000 -0.000001 -0.000000 -0.070687 -3.035241 61.424233 0.006478 4.395176 66.609173 0.000002 0.000001 0.000000 -1.235399 -0.119483 68.274270 -0.077296 4.902841 84.501898 0.000002 -0.000001 0.000001 0.883161 -4.613424 79.192949 -0.717761 1.136475 73.255773 0.000004 -0.000001 0.000001 -3.944549 0.099981 86.764774 -0.029792 0.060123 54.415157 -0.000004 0.000001 0.000001 0.000000 -0.000001 0.000001 -0.000002 0.000001 0.000000 -0.000002 0.000001 -0.000000 -0.000002 0.000001 0.000000 -0.000002 0.000001 0.000000 -0.000002 0.000001 0.000000 -0.000002 0.000001 -0.000000 -0.000002 0.000001 0.000000 -0.000002 0.000001 0.000000 -0.000002 0.000001 0.000000 -0.000002 0.000001 -0.000000 0.000000 -0.000000 0.000000 0.000000 -0.000000 0.000000 0.000000 -0.000000 0.000000 
